<svg xmlns="http://www.w3.org/2000/svg" viewBox="0 0 500 500"><g id="freepik--background-simple--inject-17"><path d="M29.61,269.64c2.9,107.31,131.58,195,233,173.86C327,430.07,360.23,427.94,409,401.78s79.9-101.11,64.34-143.54S399.83,196,388.51,140.86,338.31,31.26,287.4,18.53s-132.18,14.83-188,67.83c-31.85,30.22-56,70-66.35,112.77-5.71,23.51-3.84,45.5-3.43,69.21Z" style="fill:#48CFE7"></path><path d="M29.61,269.64c2.9,107.31,131.58,195,233,173.86C327,430.07,360.23,427.94,409,401.78s79.9-101.11,64.34-143.54S399.83,196,388.51,140.86,338.31,31.26,287.4,18.53s-132.18,14.83-188,67.83c-31.85,30.22-56,70-66.35,112.77-5.71,23.51-3.84,45.5-3.43,69.21Z" style="fill:#fff;opacity:0.7000000000000001"></path></g></svg>